<?xml version="1.0" encoding="UTF-8"?>
<svg viewBox="0 0 16 16" xmlns="http://www.w3.org/2000/svg">
<path d="m8.0003 4.2398e-4a8.0004 7.9997 0 0 0-8.0003 7.9996 8.0004 7.9997 0 0 0 1.8203 5.0604l9.0732-10.136 0.01944-0.097564h-2.8444c-0.5845 0-1.0783 0.064798-1.4809 0.19471-0.40265 0.11689-0.75302 0.3573-1.0517 0.72096-0.29874 0.36367-0.59113 0.90933-0.87692 1.6367h-1.0133l1.0522-3.7797h8.1012a8.0004 7.9997 0 0 0-4.7987-1.5999zm6.1981 2.9421-9.0332 10.152-0.019433 0.11658h2.7472c0.80532 0 1.4417-0.09704 1.9092-0.29186 0.46754-0.19482 0.851-0.50006 1.1497-0.91565 0.31174-0.4286 0.61056-0.98716 0.89636-1.6755h1.0517l-1.3052 4.0715h-8.3612a8.0004 7.9997 0 0 0 4.7661 1.5999 8.0004 7.9997 0 0 0 8.0003-7.9996 8.0004 7.9997 0 0 0-1.8022-5.0575z" fill="#0d833d"/>
</svg>
